G75*
%MOIN*%
%OFA0B0*%
%FSLAX24Y24*%
%IPPOS*%
%LPD*%
%AMOC8*
5,1,8,0,0,1.08239X$1,22.5*
%
%ADD10OC8,0.0595*%
%ADD11OC8,0.0600*%
%ADD12C,0.0600*%
%ADD13C,0.0600*%
%ADD14OC8,0.0390*%
D10*
X002026Y004065D03*
X002026Y004852D03*
D11*
X001526Y006322D03*
D12*
X001526Y007122D03*
D13*
X008590Y006287D02*
X008635Y005769D01*
X009737Y005769D02*
X009782Y006287D01*
X010361Y006287D02*
X010407Y005769D01*
X011509Y005769D02*
X011554Y006287D01*
X012133Y006287D02*
X012178Y005769D01*
X013280Y005769D02*
X013326Y006287D01*
X014003Y006287D02*
X014048Y005769D01*
X015150Y005769D02*
X015196Y006287D01*
X015775Y006287D02*
X015820Y005769D01*
X016922Y005769D02*
X016967Y006287D01*
X017546Y006287D02*
X017592Y005769D01*
X018694Y005769D02*
X018739Y006287D01*
X019318Y006287D02*
X019363Y005769D01*
X019579Y003298D02*
X019625Y002780D01*
X018432Y002780D02*
X018477Y003298D01*
X017808Y003298D02*
X017853Y002780D01*
X016660Y002780D02*
X016706Y003298D01*
X016036Y003298D02*
X016081Y002780D01*
X014889Y002780D02*
X014934Y003298D01*
X014264Y003298D02*
X014310Y002780D01*
X013019Y002780D02*
X013064Y003298D01*
X012394Y003298D02*
X012440Y002780D01*
X011247Y002780D02*
X011292Y003298D01*
X010623Y003298D02*
X010668Y002780D01*
X009475Y002780D02*
X009521Y003298D01*
X008851Y003298D02*
X008896Y002780D01*
D14*
X004682Y002539D03*
X004682Y002933D03*
X004682Y003327D03*
X005298Y002958D03*
X006650Y002342D03*
X006650Y001949D03*
X007044Y001949D03*
X007438Y001949D03*
X007438Y003327D03*
X007044Y003327D03*
X007635Y003720D03*
X005273Y003720D03*
X004879Y003720D03*
X002542Y002565D03*
M02*
