G75*
%MOIN*%
%OFA0B0*%
%FSLAX24Y24*%
%IPPOS*%
%LPD*%
%AMOC8*
5,1,8,0,0,1.08239X$1,22.5*
%
%ADD10OC8,0.0515*%
%ADD11OC8,0.0520*%
%ADD12C,0.0520*%
%ADD13C,0.0520*%
%ADD14OC8,0.0310*%
%ADD15C,0.0100*%
%ADD16C,0.0240*%
%ADD17C,0.0160*%
D10*
X002026Y004065D03*
X002026Y004852D03*
D11*
X001526Y006322D03*
D12*
X001526Y007122D03*
D13*
X008590Y006287D02*
X008635Y005769D01*
X009737Y005769D02*
X009782Y006287D01*
X010361Y006287D02*
X010407Y005769D01*
X011509Y005769D02*
X011554Y006287D01*
X012133Y006287D02*
X012178Y005769D01*
X013280Y005769D02*
X013326Y006287D01*
X014003Y006287D02*
X014048Y005769D01*
X015150Y005769D02*
X015196Y006287D01*
X015775Y006287D02*
X015820Y005769D01*
X016922Y005769D02*
X016967Y006287D01*
X017546Y006287D02*
X017592Y005769D01*
X018694Y005769D02*
X018739Y006287D01*
X019318Y006287D02*
X019363Y005769D01*
X019579Y003298D02*
X019625Y002780D01*
X018432Y002780D02*
X018477Y003298D01*
X017808Y003298D02*
X017853Y002780D01*
X016660Y002780D02*
X016706Y003298D01*
X016036Y003298D02*
X016081Y002780D01*
X014889Y002780D02*
X014934Y003298D01*
X014264Y003298D02*
X014310Y002780D01*
X013019Y002780D02*
X013064Y003298D01*
X012394Y003298D02*
X012440Y002780D01*
X011247Y002780D02*
X011292Y003298D01*
X010623Y003298D02*
X010668Y002780D01*
X009475Y002780D02*
X009521Y003298D01*
X008851Y003298D02*
X008896Y002780D01*
D14*
X007438Y003327D03*
X007044Y003327D03*
X007635Y003720D03*
X005273Y003720D03*
X004879Y003720D03*
X004682Y003327D03*
X004682Y002933D03*
X005298Y002958D03*
X004682Y002539D03*
X006650Y002342D03*
X006650Y001949D03*
X007044Y001949D03*
X007438Y001949D03*
X002542Y002565D03*
D15*
X004904Y002565D01*
X005298Y002958D01*
D16*
X004879Y003720D02*
X004534Y004065D01*
X002026Y004065D01*
D17*
X001020Y000762D02*
X001133Y000649D01*
X001281Y000587D01*
X001361Y000579D01*
X007660Y000579D01*
X007660Y004336D01*
X006479Y005517D01*
X006479Y007486D01*
X005064Y009078D01*
X001361Y009078D01*
X001281Y009070D01*
X001133Y009008D01*
X001020Y008895D01*
X000958Y008747D01*
X000951Y008667D01*
X000951Y000990D01*
X000958Y000910D01*
X001020Y000762D01*
X001065Y000716D02*
X007660Y000716D01*
X007660Y000875D02*
X000973Y000875D01*
X000951Y001033D02*
X007660Y001033D01*
X007660Y001192D02*
X000951Y001192D01*
X000951Y001350D02*
X007660Y001350D01*
X007660Y001509D02*
X000951Y001509D01*
X000951Y001667D02*
X007660Y001667D01*
X007660Y001826D02*
X000951Y001826D01*
X000951Y001984D02*
X007660Y001984D01*
X007660Y002143D02*
X000951Y002143D01*
X000951Y002301D02*
X007660Y002301D01*
X007660Y002460D02*
X000951Y002460D01*
X000951Y002618D02*
X007660Y002618D01*
X007660Y002777D02*
X000951Y002777D01*
X000951Y002935D02*
X007660Y002935D01*
X007660Y003094D02*
X000951Y003094D01*
X000951Y003252D02*
X007660Y003252D01*
X007660Y003411D02*
X000951Y003411D01*
X000951Y003569D02*
X007660Y003569D01*
X007660Y003728D02*
X002308Y003728D01*
X002208Y003627D02*
X002026Y003627D01*
X002026Y004065D01*
X002026Y004065D01*
X001589Y004065D01*
X001589Y004246D01*
X001801Y004458D01*
X001589Y004671D01*
X001589Y005033D01*
X001845Y005290D01*
X002208Y005290D01*
X002464Y005033D01*
X002464Y004671D01*
X002251Y004458D01*
X002464Y004246D01*
X002464Y004065D01*
X002026Y004065D01*
X001589Y004065D01*
X001589Y003884D01*
X001845Y003627D01*
X002026Y003627D01*
X002026Y004065D01*
X002026Y004065D01*
X002026Y004065D01*
X002464Y004065D01*
X002464Y003884D01*
X002208Y003627D01*
X002026Y003728D02*
X002026Y003728D01*
X002026Y003886D02*
X002026Y003886D01*
X001745Y003728D02*
X000951Y003728D01*
X000951Y003886D02*
X001589Y003886D01*
X001589Y004045D02*
X000951Y004045D01*
X000951Y004203D02*
X001589Y004203D01*
X001705Y004362D02*
X000951Y004362D01*
X000951Y004520D02*
X001740Y004520D01*
X001589Y004679D02*
X000951Y004679D01*
X000951Y004837D02*
X001589Y004837D01*
X001589Y004996D02*
X000951Y004996D01*
X000951Y005154D02*
X001710Y005154D01*
X002343Y005154D02*
X006842Y005154D01*
X006684Y005313D02*
X000951Y005313D01*
X000951Y005471D02*
X006525Y005471D01*
X006479Y005630D02*
X000951Y005630D01*
X000951Y005788D02*
X006479Y005788D01*
X006479Y005947D02*
X001773Y005947D01*
X001709Y005882D02*
X001526Y005882D01*
X001526Y006322D01*
X001086Y006322D01*
X001086Y006140D01*
X001344Y005882D01*
X001526Y005882D01*
X001526Y006322D01*
X001526Y006322D01*
X001526Y006322D01*
X001086Y006322D01*
X001086Y006504D01*
X001315Y006733D01*
X001277Y006749D01*
X001153Y006873D01*
X001086Y007035D01*
X001086Y007210D01*
X001153Y007371D01*
X001277Y007495D01*
X001439Y007562D01*
X001614Y007562D01*
X001776Y007495D01*
X001899Y007371D01*
X001966Y007210D01*
X001966Y007035D01*
X001899Y006873D01*
X001776Y006749D01*
X001738Y006733D01*
X001966Y006504D01*
X001966Y006322D01*
X001526Y006322D01*
X001526Y006322D01*
X001966Y006322D01*
X001966Y006140D01*
X001709Y005882D01*
X001526Y005947D02*
X001526Y005947D01*
X001526Y006105D02*
X001526Y006105D01*
X001280Y005947D02*
X000951Y005947D01*
X000951Y006105D02*
X001121Y006105D01*
X001086Y006264D02*
X000951Y006264D01*
X000951Y006422D02*
X001086Y006422D01*
X001163Y006581D02*
X000951Y006581D01*
X000951Y006739D02*
X001301Y006739D01*
X001143Y006898D02*
X000951Y006898D01*
X000951Y007056D02*
X001086Y007056D01*
X001089Y007215D02*
X000951Y007215D01*
X000951Y007373D02*
X001155Y007373D01*
X000951Y007532D02*
X001366Y007532D01*
X001687Y007532D02*
X006438Y007532D01*
X006479Y007373D02*
X001898Y007373D01*
X001964Y007215D02*
X006479Y007215D01*
X006479Y007056D02*
X001966Y007056D01*
X001910Y006898D02*
X006479Y006898D01*
X006479Y006739D02*
X001752Y006739D01*
X001890Y006581D02*
X006479Y006581D01*
X006479Y006422D02*
X001966Y006422D01*
X001966Y006264D02*
X006479Y006264D01*
X006479Y006105D02*
X001932Y006105D01*
X001526Y006264D02*
X001526Y006264D01*
X002464Y004996D02*
X007001Y004996D01*
X007159Y004837D02*
X002464Y004837D01*
X002464Y004679D02*
X007318Y004679D01*
X007476Y004520D02*
X002313Y004520D01*
X002348Y004362D02*
X007635Y004362D01*
X007660Y004203D02*
X002464Y004203D01*
X002464Y004045D02*
X007660Y004045D01*
X007660Y003886D02*
X002464Y003886D01*
X002026Y004045D02*
X002026Y004045D01*
X000951Y007690D02*
X006298Y007690D01*
X006157Y007849D02*
X000951Y007849D01*
X000951Y008007D02*
X006016Y008007D01*
X005875Y008166D02*
X000951Y008166D01*
X000951Y008324D02*
X005734Y008324D01*
X005593Y008483D02*
X000951Y008483D01*
X000951Y008641D02*
X005452Y008641D01*
X005311Y008800D02*
X000980Y008800D01*
X001083Y008958D02*
X005170Y008958D01*
M02*
