G75*
%MOIN*%
%OFA0B0*%
%FSLAX24Y24*%
%IPPOS*%
%LPD*%
%AMOC8*
5,1,8,0,0,1.08239X$1,22.5*
%
%ADD10C,0.0000*%
D10*
X001361Y000399D02*
X019865Y000399D01*
X019911Y000401D01*
X019957Y000406D01*
X020003Y000415D01*
X020048Y000428D01*
X020091Y000444D01*
X020133Y000463D01*
X020174Y000486D01*
X020212Y000512D01*
X020249Y000541D01*
X020283Y000572D01*
X020314Y000606D01*
X020343Y000643D01*
X020369Y000681D01*
X020392Y000722D01*
X020411Y000764D01*
X020427Y000807D01*
X020440Y000852D01*
X020449Y000898D01*
X020454Y000944D01*
X020456Y000990D01*
X020456Y008667D01*
X020454Y008713D01*
X020449Y008759D01*
X020440Y008805D01*
X020427Y008850D01*
X020411Y008893D01*
X020392Y008935D01*
X020369Y008976D01*
X020343Y009014D01*
X020314Y009051D01*
X020283Y009085D01*
X020249Y009116D01*
X020212Y009145D01*
X020174Y009171D01*
X020133Y009194D01*
X020091Y009213D01*
X020048Y009229D01*
X020003Y009242D01*
X019957Y009251D01*
X019911Y009256D01*
X019865Y009258D01*
X001361Y009258D01*
X001315Y009256D01*
X001269Y009251D01*
X001223Y009242D01*
X001178Y009229D01*
X001135Y009213D01*
X001093Y009194D01*
X001052Y009171D01*
X001014Y009145D01*
X000977Y009116D01*
X000943Y009085D01*
X000912Y009051D01*
X000883Y009014D01*
X000857Y008976D01*
X000834Y008935D01*
X000815Y008893D01*
X000799Y008850D01*
X000786Y008805D01*
X000777Y008759D01*
X000772Y008713D01*
X000770Y008667D01*
X000771Y008667D02*
X000771Y000990D01*
X000770Y000990D02*
X000772Y000944D01*
X000777Y000898D01*
X000786Y000852D01*
X000799Y000807D01*
X000815Y000764D01*
X000834Y000722D01*
X000857Y000681D01*
X000883Y000643D01*
X000912Y000606D01*
X000943Y000572D01*
X000977Y000541D01*
X001014Y000512D01*
X001052Y000486D01*
X001093Y000463D01*
X001135Y000444D01*
X001178Y000428D01*
X001223Y000415D01*
X001269Y000406D01*
X001315Y000401D01*
X001361Y000399D01*
X009629Y001187D02*
X009629Y002368D01*
X009826Y002565D01*
X009826Y003549D01*
X009828Y003575D01*
X009833Y003600D01*
X009841Y003624D01*
X009852Y003648D01*
X009867Y003669D01*
X009884Y003688D01*
X009903Y003705D01*
X009925Y003720D01*
X009948Y003731D01*
X009972Y003739D01*
X009997Y003744D01*
X010023Y003746D01*
X010049Y003744D01*
X010074Y003739D01*
X010098Y003731D01*
X010122Y003720D01*
X010143Y003705D01*
X010162Y003688D01*
X010179Y003669D01*
X010194Y003648D01*
X010205Y003624D01*
X010213Y003600D01*
X010218Y003575D01*
X010220Y003549D01*
X010219Y003549D02*
X010219Y001187D01*
X010220Y001187D02*
X010218Y001161D01*
X010213Y001136D01*
X010205Y001112D01*
X010194Y001088D01*
X010179Y001067D01*
X010162Y001048D01*
X010143Y001031D01*
X010122Y001016D01*
X010098Y001005D01*
X010074Y000997D01*
X010049Y000992D01*
X010023Y000990D01*
X009826Y000990D01*
X009800Y000992D01*
X009775Y000997D01*
X009751Y001005D01*
X009728Y001016D01*
X009706Y001031D01*
X009687Y001048D01*
X009670Y001067D01*
X009655Y001089D01*
X009644Y001112D01*
X009636Y001136D01*
X009631Y001161D01*
X009629Y001187D01*
X011499Y001187D02*
X011499Y002368D01*
X011647Y002516D01*
X011647Y003549D01*
X011646Y003549D02*
X011648Y003575D01*
X011653Y003600D01*
X011661Y003624D01*
X011672Y003648D01*
X011687Y003669D01*
X011704Y003688D01*
X011723Y003705D01*
X011745Y003720D01*
X011768Y003731D01*
X011792Y003739D01*
X011817Y003744D01*
X011843Y003746D01*
X011869Y003744D01*
X011894Y003739D01*
X011918Y003731D01*
X011942Y003720D01*
X011963Y003705D01*
X011982Y003688D01*
X011999Y003669D01*
X012014Y003648D01*
X012025Y003624D01*
X012033Y003600D01*
X012038Y003575D01*
X012040Y003549D01*
X012040Y002516D01*
X012089Y002466D01*
X012089Y001187D01*
X012090Y001187D02*
X012088Y001161D01*
X012083Y001136D01*
X012075Y001112D01*
X012064Y001088D01*
X012049Y001067D01*
X012032Y001048D01*
X012013Y001031D01*
X011992Y001016D01*
X011968Y001005D01*
X011944Y000997D01*
X011919Y000992D01*
X011893Y000990D01*
X011696Y000990D01*
X011670Y000992D01*
X011645Y000997D01*
X011621Y001005D01*
X011598Y001016D01*
X011576Y001031D01*
X011557Y001048D01*
X011540Y001067D01*
X011525Y001089D01*
X011514Y001112D01*
X011506Y001136D01*
X011501Y001161D01*
X011499Y001187D01*
X013369Y001187D02*
X013369Y003549D01*
X013371Y003575D01*
X013376Y003600D01*
X013384Y003624D01*
X013395Y003648D01*
X013410Y003669D01*
X013427Y003688D01*
X013446Y003705D01*
X013468Y003720D01*
X013491Y003731D01*
X013515Y003739D01*
X013540Y003744D01*
X013566Y003746D01*
X013763Y003746D01*
X013789Y003744D01*
X013814Y003739D01*
X013838Y003731D01*
X013862Y003720D01*
X013883Y003705D01*
X013902Y003688D01*
X013919Y003669D01*
X013934Y003648D01*
X013945Y003624D01*
X013953Y003600D01*
X013958Y003575D01*
X013960Y003549D01*
X013960Y001187D01*
X013958Y001161D01*
X013953Y001136D01*
X013945Y001112D01*
X013934Y001088D01*
X013919Y001067D01*
X013902Y001048D01*
X013883Y001031D01*
X013862Y001016D01*
X013838Y001005D01*
X013814Y000997D01*
X013789Y000992D01*
X013763Y000990D01*
X013566Y000990D01*
X013540Y000992D01*
X013515Y000997D01*
X013491Y001005D01*
X013468Y001016D01*
X013446Y001031D01*
X013427Y001048D01*
X013410Y001067D01*
X013395Y001089D01*
X013384Y001112D01*
X013376Y001136D01*
X013371Y001161D01*
X013369Y001187D01*
X015239Y001187D02*
X015239Y003549D01*
X015241Y003575D01*
X015246Y003600D01*
X015254Y003624D01*
X015265Y003648D01*
X015280Y003669D01*
X015297Y003688D01*
X015316Y003705D01*
X015338Y003720D01*
X015361Y003731D01*
X015385Y003739D01*
X015410Y003744D01*
X015436Y003746D01*
X015534Y003746D01*
X015560Y003744D01*
X015585Y003739D01*
X015609Y003731D01*
X015633Y003720D01*
X015654Y003705D01*
X015673Y003688D01*
X015690Y003669D01*
X015705Y003648D01*
X015716Y003624D01*
X015724Y003600D01*
X015729Y003575D01*
X015731Y003549D01*
X015731Y002516D01*
X015830Y002417D01*
X015830Y001187D01*
X015828Y001161D01*
X015823Y001136D01*
X015815Y001112D01*
X015804Y001088D01*
X015789Y001067D01*
X015772Y001048D01*
X015753Y001031D01*
X015732Y001016D01*
X015708Y001005D01*
X015684Y000997D01*
X015659Y000992D01*
X015633Y000990D01*
X015436Y000990D01*
X015410Y000992D01*
X015385Y000997D01*
X015361Y001005D01*
X015338Y001016D01*
X015316Y001031D01*
X015297Y001048D01*
X015280Y001067D01*
X015265Y001089D01*
X015254Y001112D01*
X015246Y001136D01*
X015241Y001161D01*
X015239Y001187D01*
X017109Y001187D02*
X017109Y002368D01*
X017011Y002466D01*
X017011Y003549D01*
X017013Y003575D01*
X017018Y003600D01*
X017026Y003624D01*
X017037Y003648D01*
X017052Y003669D01*
X017069Y003688D01*
X017088Y003705D01*
X017110Y003720D01*
X017133Y003731D01*
X017157Y003739D01*
X017182Y003744D01*
X017208Y003746D01*
X017355Y003746D01*
X017381Y003744D01*
X017406Y003739D01*
X017430Y003731D01*
X017454Y003720D01*
X017475Y003705D01*
X017494Y003688D01*
X017511Y003669D01*
X017526Y003648D01*
X017537Y003624D01*
X017545Y003600D01*
X017550Y003575D01*
X017552Y003549D01*
X017552Y002565D01*
X017700Y002417D01*
X017700Y001187D01*
X017698Y001161D01*
X017693Y001136D01*
X017685Y001112D01*
X017674Y001088D01*
X017659Y001067D01*
X017642Y001048D01*
X017623Y001031D01*
X017602Y001016D01*
X017578Y001005D01*
X017554Y000997D01*
X017529Y000992D01*
X017503Y000990D01*
X017306Y000990D01*
X017280Y000992D01*
X017255Y000997D01*
X017231Y001005D01*
X017208Y001016D01*
X017186Y001031D01*
X017167Y001048D01*
X017150Y001067D01*
X017135Y001089D01*
X017124Y001112D01*
X017116Y001136D01*
X017111Y001161D01*
X017109Y001187D01*
X018979Y001187D02*
X018979Y002417D01*
X018782Y002614D01*
X018782Y003549D01*
X018784Y003575D01*
X018789Y003600D01*
X018797Y003624D01*
X018808Y003648D01*
X018823Y003669D01*
X018840Y003688D01*
X018859Y003705D01*
X018881Y003720D01*
X018904Y003731D01*
X018928Y003739D01*
X018953Y003744D01*
X018979Y003746D01*
X019078Y003746D01*
X019104Y003744D01*
X019129Y003739D01*
X019153Y003731D01*
X019177Y003720D01*
X019198Y003705D01*
X019217Y003688D01*
X019234Y003669D01*
X019249Y003648D01*
X019260Y003624D01*
X019268Y003600D01*
X019273Y003575D01*
X019275Y003549D01*
X019274Y003549D02*
X019274Y002663D01*
X019570Y002368D01*
X019570Y001187D01*
X019568Y001161D01*
X019563Y001136D01*
X019555Y001112D01*
X019544Y001088D01*
X019529Y001067D01*
X019512Y001048D01*
X019493Y001031D01*
X019472Y001016D01*
X019448Y001005D01*
X019424Y000997D01*
X019399Y000992D01*
X019373Y000990D01*
X019176Y000990D01*
X019150Y000992D01*
X019125Y000997D01*
X019101Y001005D01*
X019078Y001016D01*
X019056Y001031D01*
X019037Y001048D01*
X019020Y001067D01*
X019005Y001089D01*
X018994Y001112D01*
X018986Y001136D01*
X018981Y001161D01*
X018979Y001187D01*
X018192Y005321D02*
X018093Y005321D01*
X018093Y005320D02*
X018067Y005322D01*
X018042Y005327D01*
X018018Y005335D01*
X017995Y005346D01*
X017973Y005361D01*
X017954Y005378D01*
X017937Y005397D01*
X017922Y005419D01*
X017911Y005442D01*
X017903Y005466D01*
X017898Y005491D01*
X017896Y005517D01*
X017897Y005517D02*
X017897Y006600D01*
X018192Y006895D01*
X018192Y008077D01*
X018194Y008103D01*
X018199Y008128D01*
X018207Y008152D01*
X018218Y008176D01*
X018233Y008197D01*
X018250Y008216D01*
X018269Y008233D01*
X018291Y008248D01*
X018314Y008259D01*
X018338Y008267D01*
X018363Y008272D01*
X018389Y008274D01*
X018389Y008273D02*
X018586Y008273D01*
X018586Y008274D02*
X018612Y008272D01*
X018637Y008267D01*
X018661Y008259D01*
X018685Y008248D01*
X018706Y008233D01*
X018725Y008216D01*
X018742Y008197D01*
X018757Y008176D01*
X018768Y008152D01*
X018776Y008128D01*
X018781Y008103D01*
X018783Y008077D01*
X018782Y008077D02*
X018782Y006699D01*
X018389Y006305D01*
X018389Y005517D01*
X018387Y005491D01*
X018382Y005466D01*
X018374Y005442D01*
X018363Y005419D01*
X018348Y005397D01*
X018331Y005378D01*
X018312Y005361D01*
X018291Y005346D01*
X018267Y005335D01*
X018243Y005327D01*
X018218Y005322D01*
X018192Y005320D01*
X016666Y005517D02*
X016666Y006453D01*
X016912Y006699D01*
X016912Y008077D01*
X016910Y008103D01*
X016905Y008128D01*
X016897Y008152D01*
X016886Y008176D01*
X016871Y008197D01*
X016854Y008216D01*
X016835Y008233D01*
X016814Y008248D01*
X016790Y008259D01*
X016766Y008267D01*
X016741Y008272D01*
X016715Y008274D01*
X016715Y008273D02*
X016519Y008273D01*
X016519Y008274D02*
X016493Y008272D01*
X016468Y008267D01*
X016444Y008259D01*
X016421Y008248D01*
X016399Y008233D01*
X016380Y008216D01*
X016363Y008197D01*
X016348Y008176D01*
X016337Y008152D01*
X016329Y008128D01*
X016324Y008103D01*
X016322Y008077D01*
X016322Y006846D01*
X016125Y006649D01*
X016125Y005517D01*
X016127Y005491D01*
X016132Y005466D01*
X016140Y005442D01*
X016151Y005419D01*
X016166Y005397D01*
X016183Y005378D01*
X016202Y005361D01*
X016224Y005346D01*
X016247Y005335D01*
X016271Y005327D01*
X016296Y005322D01*
X016322Y005320D01*
X016322Y005321D02*
X016469Y005321D01*
X016469Y005320D02*
X016495Y005322D01*
X016520Y005327D01*
X016544Y005335D01*
X016568Y005346D01*
X016589Y005361D01*
X016608Y005378D01*
X016625Y005397D01*
X016640Y005419D01*
X016651Y005442D01*
X016659Y005466D01*
X016664Y005491D01*
X016666Y005517D01*
X014747Y005517D02*
X014747Y006403D01*
X015042Y006699D01*
X015042Y008077D01*
X015040Y008103D01*
X015035Y008128D01*
X015027Y008152D01*
X015016Y008176D01*
X015001Y008197D01*
X014984Y008216D01*
X014965Y008233D01*
X014944Y008248D01*
X014920Y008259D01*
X014896Y008267D01*
X014871Y008272D01*
X014845Y008274D01*
X014845Y008273D02*
X014649Y008273D01*
X014649Y008274D02*
X014623Y008272D01*
X014598Y008267D01*
X014574Y008259D01*
X014551Y008248D01*
X014529Y008233D01*
X014510Y008216D01*
X014493Y008197D01*
X014478Y008176D01*
X014467Y008152D01*
X014459Y008128D01*
X014454Y008103D01*
X014452Y008077D01*
X014452Y006846D01*
X014353Y006748D01*
X014353Y005517D01*
X014355Y005491D01*
X014360Y005466D01*
X014368Y005442D01*
X014379Y005419D01*
X014394Y005397D01*
X014411Y005378D01*
X014430Y005361D01*
X014452Y005346D01*
X014475Y005335D01*
X014499Y005327D01*
X014524Y005322D01*
X014550Y005320D01*
X014576Y005322D01*
X014601Y005327D01*
X014625Y005335D01*
X014649Y005346D01*
X014670Y005361D01*
X014689Y005378D01*
X014706Y005397D01*
X014721Y005419D01*
X014732Y005442D01*
X014740Y005466D01*
X014745Y005491D01*
X014747Y005517D01*
X012975Y005517D02*
X012975Y006502D01*
X013172Y006699D01*
X013172Y008077D01*
X013170Y008103D01*
X013165Y008128D01*
X013157Y008152D01*
X013146Y008176D01*
X013131Y008197D01*
X013114Y008216D01*
X013095Y008233D01*
X013074Y008248D01*
X013050Y008259D01*
X013026Y008267D01*
X013001Y008272D01*
X012975Y008274D01*
X012975Y008273D02*
X012778Y008273D01*
X012778Y008274D02*
X012752Y008272D01*
X012727Y008267D01*
X012703Y008259D01*
X012680Y008248D01*
X012658Y008233D01*
X012639Y008216D01*
X012622Y008197D01*
X012607Y008176D01*
X012596Y008152D01*
X012588Y008128D01*
X012583Y008103D01*
X012581Y008077D01*
X012582Y008077D02*
X012582Y005517D01*
X012581Y005517D02*
X012583Y005491D01*
X012588Y005466D01*
X012596Y005442D01*
X012607Y005419D01*
X012622Y005397D01*
X012639Y005378D01*
X012658Y005361D01*
X012680Y005346D01*
X012703Y005335D01*
X012727Y005327D01*
X012752Y005322D01*
X012778Y005320D01*
X012804Y005322D01*
X012829Y005327D01*
X012853Y005335D01*
X012877Y005346D01*
X012898Y005361D01*
X012917Y005378D01*
X012934Y005397D01*
X012949Y005419D01*
X012960Y005442D01*
X012968Y005466D01*
X012973Y005491D01*
X012975Y005517D01*
X011204Y005517D02*
X011204Y006600D01*
X011302Y006699D01*
X011302Y008077D01*
X011300Y008103D01*
X011295Y008128D01*
X011287Y008152D01*
X011276Y008176D01*
X011261Y008197D01*
X011244Y008216D01*
X011225Y008233D01*
X011204Y008248D01*
X011180Y008259D01*
X011156Y008267D01*
X011131Y008272D01*
X011105Y008274D01*
X011105Y008273D02*
X010908Y008273D01*
X010908Y008274D02*
X010882Y008272D01*
X010857Y008267D01*
X010833Y008259D01*
X010810Y008248D01*
X010788Y008233D01*
X010769Y008216D01*
X010752Y008197D01*
X010737Y008176D01*
X010726Y008152D01*
X010718Y008128D01*
X010713Y008103D01*
X010711Y008077D01*
X010711Y005517D01*
X010713Y005491D01*
X010718Y005466D01*
X010726Y005442D01*
X010737Y005419D01*
X010752Y005397D01*
X010769Y005378D01*
X010788Y005361D01*
X010810Y005346D01*
X010833Y005335D01*
X010857Y005327D01*
X010882Y005322D01*
X010908Y005320D01*
X010908Y005321D02*
X011007Y005321D01*
X011007Y005320D02*
X011033Y005322D01*
X011058Y005327D01*
X011082Y005335D01*
X011106Y005346D01*
X011127Y005361D01*
X011146Y005378D01*
X011163Y005397D01*
X011178Y005419D01*
X011189Y005442D01*
X011197Y005466D01*
X011202Y005491D01*
X011204Y005517D01*
X009432Y005517D02*
X009432Y008077D01*
X009430Y008103D01*
X009425Y008128D01*
X009417Y008152D01*
X009406Y008176D01*
X009391Y008197D01*
X009374Y008216D01*
X009355Y008233D01*
X009334Y008248D01*
X009310Y008259D01*
X009286Y008267D01*
X009261Y008272D01*
X009235Y008274D01*
X009235Y008273D02*
X009038Y008273D01*
X009038Y008274D02*
X009012Y008272D01*
X008987Y008267D01*
X008963Y008259D01*
X008940Y008248D01*
X008918Y008233D01*
X008899Y008216D01*
X008882Y008197D01*
X008867Y008176D01*
X008856Y008152D01*
X008848Y008128D01*
X008843Y008103D01*
X008841Y008077D01*
X008841Y006551D01*
X008940Y006453D01*
X008940Y005517D01*
X008942Y005491D01*
X008947Y005466D01*
X008955Y005442D01*
X008966Y005419D01*
X008981Y005397D01*
X008998Y005378D01*
X009017Y005361D01*
X009039Y005346D01*
X009062Y005335D01*
X009086Y005327D01*
X009111Y005322D01*
X009137Y005320D01*
X009137Y005321D02*
X009235Y005321D01*
X009235Y005320D02*
X009261Y005322D01*
X009286Y005327D01*
X009310Y005335D01*
X009334Y005346D01*
X009355Y005361D01*
X009374Y005378D01*
X009391Y005397D01*
X009406Y005419D01*
X009417Y005442D01*
X009425Y005466D01*
X009430Y005491D01*
X009432Y005517D01*
M02*
