%
M48
M72
T01C0.0150
T02C0.0315
T03C0.0320
%
T01
X4682Y2539
X4682Y2933
X4682Y3327
X5298Y2958
X6650Y2342
X6650Y1949
X7044Y1949
X7438Y1949
X7438Y3327
X7044Y3327
X7635Y3720
X5273Y3720
X4879Y3720
X2542Y2565
T02
X2026Y4065
X2026Y4852
T03
X1526Y6322
X1526Y7122
X8612Y6028
X9760Y6028
X10384Y6028
X11531Y6028
X12156Y6028
X13303Y6028
X14026Y6028
X15173Y6028
X15797Y6028
X16945Y6028
X17569Y6028
X18716Y6028
X19341Y6028
X19602Y3039
X18455Y3039
X17830Y3039
X16683Y3039
X16059Y3039
X14911Y3039
X14287Y3039
X13041Y3039
X12417Y3039
X11270Y3039
X10645Y3039
X9498Y3039
X8874Y3039
M30
