G75*
%MOIN*%
%OFA0B0*%
%FSLAX24Y24*%
%IPPOS*%
%LPD*%
%AMOC8*
5,1,8,0,0,1.08239X$1,22.5*
%
%ADD10C,0.0060*%
%ADD11C,0.0020*%
%ADD12C,0.0050*%
%ADD13C,0.0080*%
%ADD14C,0.0040*%
%ADD15R,0.0340X0.0300*%
%ADD16C,0.0039*%
%ADD17R,0.0433X0.0226*%
%ADD18R,0.0200X0.0800*%
%ADD19R,0.0250X0.0200*%
%ADD20C,0.0079*%
%ADD21C,0.0100*%
D10*
X004169Y002470D02*
X005309Y002470D01*
X005332Y002472D01*
X005355Y002477D01*
X005377Y002486D01*
X005397Y002499D01*
X005415Y002514D01*
X005430Y002532D01*
X005443Y002552D01*
X005452Y002574D01*
X005457Y002597D01*
X005459Y002620D01*
X005459Y004320D01*
X005457Y004343D01*
X005452Y004366D01*
X005443Y004388D01*
X005430Y004408D01*
X005415Y004426D01*
X005397Y004441D01*
X005377Y004454D01*
X005355Y004463D01*
X005332Y004468D01*
X005309Y004470D01*
X004939Y004470D01*
X004539Y004470D01*
X004169Y004470D01*
X004146Y004468D01*
X004123Y004463D01*
X004101Y004454D01*
X004081Y004441D01*
X004063Y004426D01*
X004048Y004408D01*
X004035Y004388D01*
X004026Y004366D01*
X004021Y004343D01*
X004019Y004320D01*
X004019Y002620D01*
X004021Y002597D01*
X004026Y002574D01*
X004035Y002552D01*
X004048Y002532D01*
X004063Y002514D01*
X004081Y002499D01*
X004101Y002486D01*
X004123Y002477D01*
X004146Y002472D01*
X004169Y002470D01*
X002957Y003898D02*
X002957Y004191D01*
X002957Y004685D02*
X002957Y004979D01*
X002811Y004832D02*
X003104Y004832D01*
X004539Y004470D02*
X004541Y004443D01*
X004546Y004416D01*
X004556Y004390D01*
X004568Y004366D01*
X004584Y004344D01*
X004602Y004324D01*
X004624Y004307D01*
X004647Y004292D01*
X004672Y004282D01*
X004698Y004274D01*
X004725Y004270D01*
X004753Y004270D01*
X004780Y004274D01*
X004806Y004282D01*
X004831Y004292D01*
X004854Y004307D01*
X004876Y004324D01*
X004894Y004344D01*
X004910Y004366D01*
X004922Y004390D01*
X004932Y004416D01*
X004937Y004443D01*
X004939Y004470D01*
X008275Y005295D02*
X008414Y003701D01*
X008418Y003682D01*
X008425Y003664D01*
X008436Y003647D01*
X008450Y003633D01*
X008466Y003622D01*
X008484Y003615D01*
X008503Y003611D01*
X008523Y003610D01*
X008523Y003611D02*
X009120Y003663D01*
X009121Y003662D02*
X009138Y003665D01*
X009154Y003671D01*
X009169Y003680D01*
X009183Y003691D01*
X009194Y003705D01*
X009203Y003720D01*
X009209Y003736D01*
X009212Y003753D01*
X009212Y003771D01*
X009211Y003771D02*
X009072Y005365D01*
X009069Y005382D01*
X009063Y005398D01*
X009054Y005413D01*
X009043Y005427D01*
X009029Y005438D01*
X009014Y005447D01*
X008998Y005453D01*
X008981Y005456D01*
X008963Y005456D01*
X008366Y005404D01*
X008365Y005404D02*
X008348Y005401D01*
X008332Y005395D01*
X008317Y005386D01*
X008303Y005375D01*
X008292Y005361D01*
X008283Y005346D01*
X008277Y005330D01*
X008274Y005313D01*
X008274Y005295D01*
X008691Y005131D02*
X008743Y004533D01*
X008992Y004555D01*
X008743Y004533D02*
X008494Y004511D01*
X008743Y004533D02*
X008459Y004910D01*
X008957Y004953D01*
X008743Y004533D01*
X008765Y004284D01*
X009345Y004157D02*
X009629Y004533D01*
X009380Y004555D01*
X009629Y004533D02*
X009878Y004511D01*
X009629Y004533D02*
X009843Y004113D01*
X009345Y004157D01*
X009577Y003936D02*
X009629Y004533D01*
X009651Y004782D01*
X010231Y004910D02*
X010515Y004533D01*
X010764Y004555D01*
X010515Y004533D02*
X010266Y004511D01*
X010515Y004533D02*
X010536Y004284D01*
X010515Y004533D02*
X010462Y005131D01*
X010137Y005404D02*
X010120Y005401D01*
X010104Y005395D01*
X010089Y005386D01*
X010075Y005375D01*
X010064Y005361D01*
X010055Y005346D01*
X010049Y005330D01*
X010046Y005313D01*
X010046Y005295D01*
X010186Y003701D01*
X010190Y003682D01*
X010197Y003664D01*
X010208Y003647D01*
X010222Y003633D01*
X010238Y003622D01*
X010256Y003615D01*
X010275Y003611D01*
X010295Y003610D01*
X010294Y003611D02*
X010892Y003663D01*
X010892Y003662D02*
X010909Y003665D01*
X010925Y003671D01*
X010940Y003680D01*
X010954Y003691D01*
X010965Y003705D01*
X010974Y003720D01*
X010980Y003736D01*
X010983Y003753D01*
X010983Y003771D01*
X010843Y005365D01*
X010844Y005365D02*
X010841Y005382D01*
X010835Y005398D01*
X010826Y005413D01*
X010815Y005427D01*
X010801Y005438D01*
X010786Y005447D01*
X010770Y005453D01*
X010753Y005456D01*
X010735Y005456D01*
X010137Y005404D01*
X010097Y005295D02*
X009958Y003701D01*
X009955Y003684D01*
X009949Y003668D01*
X009940Y003653D01*
X009929Y003639D01*
X009915Y003628D01*
X009900Y003619D01*
X009884Y003613D01*
X009867Y003610D01*
X009849Y003610D01*
X009849Y003611D02*
X009252Y003663D01*
X009251Y003662D02*
X009234Y003665D01*
X009218Y003671D01*
X009203Y003680D01*
X009189Y003691D01*
X009178Y003705D01*
X009169Y003720D01*
X009163Y003736D01*
X009160Y003753D01*
X009160Y003771D01*
X009161Y003771D02*
X009300Y005365D01*
X009304Y005384D01*
X009311Y005402D01*
X009322Y005419D01*
X009336Y005433D01*
X009352Y005444D01*
X009370Y005451D01*
X009389Y005455D01*
X009409Y005456D01*
X009408Y005456D02*
X010006Y005404D01*
X010023Y005401D01*
X010039Y005395D01*
X010054Y005386D01*
X010068Y005375D01*
X010079Y005361D01*
X010088Y005346D01*
X010094Y005330D01*
X010097Y005313D01*
X010097Y005295D01*
X010231Y004910D02*
X010729Y004953D01*
X010515Y004533D01*
X011151Y004555D02*
X011400Y004533D01*
X011650Y004511D01*
X011400Y004533D02*
X011615Y004113D01*
X011117Y004157D01*
X011400Y004533D01*
X011348Y003936D01*
X011023Y003662D02*
X011006Y003665D01*
X010990Y003671D01*
X010975Y003680D01*
X010961Y003691D01*
X010950Y003705D01*
X010941Y003720D01*
X010935Y003736D01*
X010932Y003753D01*
X010932Y003771D01*
X011072Y005365D01*
X011071Y005365D02*
X011075Y005384D01*
X011082Y005402D01*
X011093Y005419D01*
X011107Y005433D01*
X011123Y005444D01*
X011141Y005451D01*
X011160Y005455D01*
X011180Y005456D01*
X011778Y005404D01*
X011795Y005401D01*
X011811Y005395D01*
X011826Y005386D01*
X011840Y005375D01*
X011851Y005361D01*
X011860Y005346D01*
X011866Y005330D01*
X011869Y005313D01*
X011869Y005295D01*
X011729Y003701D01*
X011730Y003701D02*
X011727Y003684D01*
X011721Y003668D01*
X011712Y003653D01*
X011701Y003639D01*
X011687Y003628D01*
X011672Y003619D01*
X011656Y003613D01*
X011639Y003610D01*
X011621Y003610D01*
X011621Y003611D02*
X011023Y003663D01*
X011958Y003701D02*
X011818Y005295D01*
X011818Y005313D01*
X011821Y005330D01*
X011827Y005346D01*
X011836Y005361D01*
X011847Y005375D01*
X011861Y005386D01*
X011876Y005395D01*
X011892Y005401D01*
X011909Y005404D01*
X012507Y005456D01*
X012506Y005456D02*
X012524Y005456D01*
X012541Y005453D01*
X012557Y005447D01*
X012572Y005438D01*
X012586Y005427D01*
X012597Y005413D01*
X012606Y005398D01*
X012612Y005382D01*
X012615Y005365D01*
X012755Y003771D01*
X012704Y003771D02*
X012704Y003753D01*
X012707Y003736D01*
X012713Y003720D01*
X012722Y003705D01*
X012733Y003691D01*
X012747Y003680D01*
X012762Y003671D01*
X012778Y003665D01*
X012795Y003662D01*
X012795Y003663D02*
X013393Y003611D01*
X013392Y003610D02*
X013410Y003610D01*
X013427Y003613D01*
X013443Y003619D01*
X013458Y003628D01*
X013472Y003639D01*
X013483Y003653D01*
X013492Y003668D01*
X013498Y003684D01*
X013501Y003701D01*
X013640Y005295D01*
X013688Y005295D02*
X013828Y003701D01*
X013827Y003701D02*
X013831Y003682D01*
X013838Y003664D01*
X013849Y003647D01*
X013863Y003633D01*
X013879Y003622D01*
X013897Y003615D01*
X013916Y003611D01*
X013936Y003610D01*
X013936Y003611D02*
X014534Y003663D01*
X014534Y003662D02*
X014551Y003665D01*
X014567Y003671D01*
X014582Y003680D01*
X014596Y003691D01*
X014607Y003705D01*
X014616Y003720D01*
X014622Y003736D01*
X014625Y003753D01*
X014625Y003771D01*
X014485Y005365D01*
X014486Y005365D02*
X014483Y005382D01*
X014477Y005398D01*
X014468Y005413D01*
X014457Y005427D01*
X014443Y005438D01*
X014428Y005447D01*
X014412Y005453D01*
X014395Y005456D01*
X014377Y005456D01*
X013779Y005404D01*
X013762Y005401D01*
X013746Y005395D01*
X013731Y005386D01*
X013717Y005375D01*
X013706Y005361D01*
X013697Y005346D01*
X013691Y005330D01*
X013688Y005313D01*
X013688Y005295D01*
X013641Y005295D02*
X013641Y005313D01*
X013638Y005330D01*
X013632Y005346D01*
X013623Y005361D01*
X013612Y005375D01*
X013598Y005386D01*
X013583Y005395D01*
X013567Y005401D01*
X013550Y005404D01*
X013549Y005404D02*
X012952Y005456D01*
X012932Y005455D01*
X012913Y005451D01*
X012895Y005444D01*
X012879Y005433D01*
X012865Y005419D01*
X012854Y005402D01*
X012847Y005384D01*
X012843Y005365D01*
X012704Y003771D01*
X012755Y003771D02*
X012755Y003753D01*
X012752Y003736D01*
X012746Y003720D01*
X012737Y003705D01*
X012726Y003691D01*
X012712Y003680D01*
X012697Y003671D01*
X012681Y003665D01*
X012664Y003662D01*
X012664Y003663D02*
X012066Y003611D01*
X012066Y003610D02*
X012046Y003611D01*
X012027Y003615D01*
X012009Y003622D01*
X011993Y003633D01*
X011979Y003647D01*
X011968Y003664D01*
X011961Y003682D01*
X011957Y003701D01*
X012308Y004284D02*
X012286Y004533D01*
X012535Y004555D01*
X012286Y004533D02*
X012037Y004511D01*
X012286Y004533D02*
X012002Y004910D01*
X012500Y004953D01*
X012286Y004533D01*
X012234Y005131D01*
X011422Y004782D02*
X011400Y004533D01*
X012923Y004555D02*
X013172Y004533D01*
X013421Y004511D01*
X013172Y004533D02*
X013386Y004113D01*
X012888Y004157D01*
X013172Y004533D01*
X013120Y003936D01*
X013172Y004533D02*
X013194Y004782D01*
X013872Y004910D02*
X014156Y004533D01*
X014405Y004555D01*
X014156Y004533D02*
X013907Y004511D01*
X014156Y004533D02*
X014104Y005131D01*
X013872Y004910D02*
X014371Y004953D01*
X014156Y004533D01*
X014178Y004284D01*
X014758Y004157D02*
X015042Y004533D01*
X014793Y004555D01*
X015042Y004533D02*
X015291Y004511D01*
X015042Y004533D02*
X015256Y004113D01*
X014758Y004157D01*
X014990Y003936D02*
X015042Y004533D01*
X015064Y004782D01*
X015644Y004910D02*
X015928Y004533D01*
X016177Y004555D01*
X015928Y004533D02*
X015679Y004511D01*
X015928Y004533D02*
X015876Y005131D01*
X015550Y005404D02*
X015533Y005401D01*
X015517Y005395D01*
X015502Y005386D01*
X015488Y005375D01*
X015477Y005361D01*
X015468Y005346D01*
X015462Y005330D01*
X015459Y005313D01*
X015459Y005295D01*
X015460Y005295D02*
X015599Y003701D01*
X015603Y003682D01*
X015610Y003664D01*
X015621Y003647D01*
X015635Y003633D01*
X015651Y003622D01*
X015669Y003615D01*
X015688Y003611D01*
X015708Y003610D01*
X015708Y003611D02*
X016305Y003663D01*
X016306Y003662D02*
X016323Y003665D01*
X016339Y003671D01*
X016354Y003680D01*
X016368Y003691D01*
X016379Y003705D01*
X016388Y003720D01*
X016394Y003736D01*
X016397Y003753D01*
X016397Y003771D01*
X016396Y003771D02*
X016257Y005365D01*
X016254Y005382D01*
X016248Y005398D01*
X016239Y005413D01*
X016228Y005427D01*
X016214Y005438D01*
X016199Y005447D01*
X016183Y005453D01*
X016166Y005456D01*
X016148Y005456D01*
X015551Y005404D01*
X015510Y005295D02*
X015371Y003701D01*
X015368Y003684D01*
X015362Y003668D01*
X015353Y003653D01*
X015342Y003639D01*
X015328Y003628D01*
X015313Y003619D01*
X015297Y003613D01*
X015280Y003610D01*
X015262Y003610D01*
X015263Y003611D02*
X014665Y003663D01*
X014665Y003662D02*
X014648Y003665D01*
X014632Y003671D01*
X014617Y003680D01*
X014603Y003691D01*
X014592Y003705D01*
X014583Y003720D01*
X014577Y003736D01*
X014574Y003753D01*
X014574Y003771D01*
X014713Y005365D01*
X014717Y005384D01*
X014724Y005402D01*
X014735Y005419D01*
X014749Y005433D01*
X014765Y005444D01*
X014783Y005451D01*
X014802Y005455D01*
X014822Y005456D01*
X015420Y005404D01*
X015437Y005401D01*
X015453Y005395D01*
X015468Y005386D01*
X015482Y005375D01*
X015493Y005361D01*
X015502Y005346D01*
X015508Y005330D01*
X015511Y005313D01*
X015511Y005295D01*
X015644Y004910D02*
X016142Y004953D01*
X015928Y004533D01*
X015950Y004284D01*
X016530Y004157D02*
X016814Y004533D01*
X016565Y004555D01*
X016814Y004533D02*
X017063Y004511D01*
X016814Y004533D02*
X017028Y004113D01*
X016530Y004157D01*
X016762Y003936D02*
X016814Y004533D01*
X016836Y004782D01*
X017416Y004910D02*
X017700Y004533D01*
X017949Y004555D01*
X017700Y004533D02*
X017451Y004511D01*
X017700Y004533D02*
X017647Y005131D01*
X017322Y005404D02*
X017305Y005401D01*
X017289Y005395D01*
X017274Y005386D01*
X017260Y005375D01*
X017249Y005361D01*
X017240Y005346D01*
X017234Y005330D01*
X017231Y005313D01*
X017231Y005295D01*
X017371Y003701D01*
X017375Y003682D01*
X017382Y003664D01*
X017393Y003647D01*
X017407Y003633D01*
X017423Y003622D01*
X017441Y003615D01*
X017460Y003611D01*
X017480Y003610D01*
X017479Y003611D02*
X018077Y003663D01*
X018077Y003662D02*
X018094Y003665D01*
X018110Y003671D01*
X018125Y003680D01*
X018139Y003691D01*
X018150Y003705D01*
X018159Y003720D01*
X018165Y003736D01*
X018168Y003753D01*
X018168Y003771D01*
X018028Y005365D01*
X018029Y005365D02*
X018026Y005382D01*
X018020Y005398D01*
X018011Y005413D01*
X018000Y005427D01*
X017986Y005438D01*
X017971Y005447D01*
X017955Y005453D01*
X017938Y005456D01*
X017920Y005456D01*
X017322Y005404D01*
X017282Y005295D02*
X017143Y003701D01*
X017140Y003684D01*
X017134Y003668D01*
X017125Y003653D01*
X017114Y003639D01*
X017100Y003628D01*
X017085Y003619D01*
X017069Y003613D01*
X017052Y003610D01*
X017034Y003610D01*
X017034Y003611D02*
X016437Y003663D01*
X016436Y003662D02*
X016419Y003665D01*
X016403Y003671D01*
X016388Y003680D01*
X016374Y003691D01*
X016363Y003705D01*
X016354Y003720D01*
X016348Y003736D01*
X016345Y003753D01*
X016345Y003771D01*
X016346Y003771D02*
X016485Y005365D01*
X016489Y005384D01*
X016496Y005402D01*
X016507Y005419D01*
X016521Y005433D01*
X016537Y005444D01*
X016555Y005451D01*
X016574Y005455D01*
X016594Y005456D01*
X016593Y005456D02*
X017191Y005404D01*
X017208Y005401D01*
X017224Y005395D01*
X017239Y005386D01*
X017253Y005375D01*
X017264Y005361D01*
X017273Y005346D01*
X017279Y005330D01*
X017282Y005313D01*
X017282Y005295D01*
X017416Y004910D02*
X017914Y004953D01*
X017700Y004533D01*
X017721Y004284D01*
X018302Y004157D02*
X018586Y004533D01*
X018336Y004555D01*
X018586Y004533D02*
X018835Y004511D01*
X018586Y004533D02*
X018800Y004113D01*
X018302Y004157D01*
X018533Y003936D02*
X018586Y004533D01*
X018607Y004782D01*
X019187Y004910D02*
X019471Y004533D01*
X019720Y004555D01*
X019471Y004533D02*
X019222Y004511D01*
X019471Y004533D02*
X019419Y005131D01*
X019187Y004910D02*
X019686Y004953D01*
X019471Y004533D01*
X019493Y004284D01*
X019142Y003701D02*
X019146Y003682D01*
X019153Y003664D01*
X019164Y003647D01*
X019178Y003633D01*
X019194Y003622D01*
X019212Y003615D01*
X019231Y003611D01*
X019251Y003610D01*
X019251Y003611D02*
X019849Y003663D01*
X019849Y003662D02*
X019866Y003665D01*
X019882Y003671D01*
X019897Y003680D01*
X019911Y003691D01*
X019922Y003705D01*
X019931Y003720D01*
X019937Y003736D01*
X019940Y003753D01*
X019940Y003771D01*
X019800Y005365D01*
X019797Y005382D01*
X019791Y005398D01*
X019782Y005413D01*
X019771Y005427D01*
X019757Y005438D01*
X019742Y005447D01*
X019726Y005453D01*
X019709Y005456D01*
X019691Y005456D01*
X019692Y005456D02*
X019094Y005404D01*
X019077Y005401D01*
X019061Y005395D01*
X019046Y005386D01*
X019032Y005375D01*
X019021Y005361D01*
X019012Y005346D01*
X019006Y005330D01*
X019003Y005313D01*
X019003Y005295D01*
X019143Y003701D01*
X018914Y003701D02*
X019054Y005295D01*
X019054Y005313D01*
X019051Y005330D01*
X019045Y005346D01*
X019036Y005361D01*
X019025Y005375D01*
X019011Y005386D01*
X018996Y005395D01*
X018980Y005401D01*
X018963Y005404D01*
X018365Y005456D01*
X018345Y005455D01*
X018326Y005451D01*
X018308Y005444D01*
X018292Y005433D01*
X018278Y005419D01*
X018267Y005402D01*
X018260Y005384D01*
X018256Y005365D01*
X018257Y005365D02*
X018117Y003771D01*
X018117Y003753D01*
X018120Y003736D01*
X018126Y003720D01*
X018135Y003705D01*
X018146Y003691D01*
X018160Y003680D01*
X018175Y003671D01*
X018191Y003665D01*
X018208Y003662D01*
X018208Y003663D02*
X018806Y003611D01*
X018806Y003610D02*
X018824Y003610D01*
X018841Y003613D01*
X018857Y003619D01*
X018872Y003628D01*
X018886Y003639D01*
X018897Y003653D01*
X018906Y003668D01*
X018912Y003684D01*
X018915Y003701D01*
X002326Y007122D02*
X002126Y007122D01*
X002226Y007222D02*
X002226Y007022D01*
X000526Y006722D02*
X000528Y006785D01*
X000534Y006847D01*
X000544Y006909D01*
X000557Y006971D01*
X000575Y007031D01*
X000596Y007090D01*
X000621Y007148D01*
X000650Y007204D01*
X000682Y007258D01*
X000717Y007310D01*
X000755Y007359D01*
X000797Y007407D01*
X000841Y007451D01*
X000889Y007493D01*
X000938Y007531D01*
X000990Y007566D01*
X001044Y007598D01*
X001100Y007627D01*
X001158Y007652D01*
X001217Y007673D01*
X001277Y007691D01*
X001339Y007704D01*
X001401Y007714D01*
X001463Y007720D01*
X001526Y007722D01*
X001589Y007720D01*
X001651Y007714D01*
X001713Y007704D01*
X001775Y007691D01*
X001835Y007673D01*
X001894Y007652D01*
X001952Y007627D01*
X002008Y007598D01*
X002062Y007566D01*
X002114Y007531D01*
X002163Y007493D01*
X002211Y007451D01*
X002255Y007407D01*
X002297Y007359D01*
X002335Y007310D01*
X002370Y007258D01*
X002402Y007204D01*
X002431Y007148D01*
X002456Y007090D01*
X002477Y007031D01*
X002495Y006971D01*
X002508Y006909D01*
X002518Y006847D01*
X002524Y006785D01*
X002526Y006722D01*
X002524Y006659D01*
X002518Y006597D01*
X002508Y006535D01*
X002495Y006473D01*
X002477Y006413D01*
X002456Y006354D01*
X002431Y006296D01*
X002402Y006240D01*
X002370Y006186D01*
X002335Y006134D01*
X002297Y006085D01*
X002255Y006037D01*
X002211Y005993D01*
X002163Y005951D01*
X002114Y005913D01*
X002062Y005878D01*
X002008Y005846D01*
X001952Y005817D01*
X001894Y005792D01*
X001835Y005771D01*
X001775Y005753D01*
X001713Y005740D01*
X001651Y005730D01*
X001589Y005724D01*
X001526Y005722D01*
X001463Y005724D01*
X001401Y005730D01*
X001339Y005740D01*
X001277Y005753D01*
X001217Y005771D01*
X001158Y005792D01*
X001100Y005817D01*
X001044Y005846D01*
X000990Y005878D01*
X000938Y005913D01*
X000889Y005951D01*
X000841Y005993D01*
X000797Y006037D01*
X000755Y006085D01*
X000717Y006134D01*
X000682Y006186D01*
X000650Y006240D01*
X000621Y006296D01*
X000596Y006354D01*
X000575Y006413D01*
X000557Y006473D01*
X000544Y006535D01*
X000534Y006597D01*
X000528Y006659D01*
X000526Y006722D01*
D11*
X004159Y004470D02*
X004159Y002470D01*
D12*
X002617Y003277D02*
X000845Y003277D01*
X000845Y005640D01*
X002617Y005640D01*
X002617Y004655D01*
X002420Y004655D01*
X002420Y005443D01*
X001042Y005443D01*
X001042Y004458D01*
X001239Y004458D01*
X001042Y004458D02*
X001042Y003474D01*
X002420Y003474D01*
X002420Y004262D01*
X002617Y004262D01*
X002617Y003277D01*
X004014Y004745D02*
X004164Y004745D01*
X004089Y004745D02*
X004089Y005196D01*
X004014Y005196D02*
X004164Y005196D01*
X004321Y005121D02*
X004321Y004820D01*
X004396Y004745D01*
X004546Y004745D01*
X004621Y004820D01*
X004781Y004745D02*
X005082Y004745D01*
X004932Y004745D02*
X004932Y005196D01*
X004781Y005045D01*
X004621Y005121D02*
X004546Y005196D01*
X004396Y005196D01*
X004321Y005121D01*
X002401Y005052D02*
X002401Y004901D01*
X002326Y004826D01*
X002026Y004826D01*
X001951Y004901D01*
X001951Y005052D01*
X002026Y005127D01*
X002026Y005287D02*
X001951Y005362D01*
X001951Y005512D01*
X002026Y005587D01*
X002101Y005587D01*
X002401Y005287D01*
X002401Y005587D01*
X002026Y005640D02*
X001830Y005640D01*
X002326Y005127D02*
X002401Y005052D01*
X007772Y004444D02*
X007792Y004220D01*
X007873Y004151D01*
X008172Y004178D01*
X008240Y004259D01*
X008221Y004483D01*
X007772Y004444D01*
X008111Y004012D02*
X008274Y003875D01*
X007825Y003836D01*
X007812Y003985D02*
X007838Y003686D01*
X009603Y003761D02*
X009590Y003911D01*
X009659Y003992D01*
X009821Y003855D02*
X009828Y003781D01*
X009760Y003699D01*
X009685Y003693D01*
X009603Y003761D01*
X009828Y003781D02*
X009909Y003712D01*
X009984Y003719D01*
X010052Y003800D01*
X010039Y003950D01*
X009958Y004018D01*
X009944Y004178D02*
X010012Y004259D01*
X009992Y004483D01*
X009544Y004444D01*
X009563Y004220D01*
X009645Y004151D01*
X009944Y004178D01*
X010152Y004492D02*
X010171Y004716D01*
X010253Y004784D01*
X010552Y004758D01*
X010620Y004677D01*
X010600Y004452D01*
X010152Y004492D01*
X010267Y004944D02*
X010198Y005025D01*
X010212Y005175D01*
X010293Y005243D01*
X010368Y005236D01*
X010641Y004911D01*
X010667Y005210D01*
X011315Y004444D02*
X011764Y004483D01*
X011784Y004259D01*
X011715Y004178D01*
X011416Y004151D01*
X011335Y004220D01*
X011315Y004444D01*
X011580Y004005D02*
X011668Y003862D01*
X011674Y003787D01*
X011606Y003706D01*
X011456Y003693D01*
X011375Y003761D01*
X011362Y003911D01*
X011430Y003992D01*
X011580Y004005D02*
X011804Y004025D01*
X011830Y003726D01*
X013226Y003985D02*
X013300Y003992D01*
X013626Y003719D01*
X013700Y003726D01*
X013674Y004025D01*
X013586Y004178D02*
X013654Y004259D01*
X013634Y004483D01*
X013185Y004444D01*
X013205Y004220D01*
X013286Y004151D01*
X013586Y004178D01*
X013695Y004492D02*
X013715Y004716D01*
X013796Y004784D01*
X014095Y004758D01*
X014163Y004677D01*
X014144Y004452D01*
X013695Y004492D01*
X013960Y004931D02*
X013979Y005155D01*
X014061Y005223D01*
X014135Y005217D01*
X014204Y005135D01*
X014190Y004986D01*
X014109Y004918D01*
X013960Y004931D01*
X013823Y005093D01*
X013761Y005249D01*
X012432Y005135D02*
X011983Y005175D01*
X012188Y004931D01*
X012214Y005230D01*
X012024Y004784D02*
X011943Y004716D01*
X011923Y004492D01*
X012372Y004452D01*
X012392Y004677D01*
X012324Y004758D01*
X012024Y004784D01*
X014957Y004444D02*
X014977Y004220D01*
X015058Y004151D01*
X015357Y004178D01*
X015425Y004259D01*
X015406Y004483D01*
X014957Y004444D01*
X015296Y004012D02*
X015228Y003930D01*
X015248Y003706D01*
X015397Y003719D02*
X015466Y003800D01*
X015452Y003950D01*
X015371Y004018D01*
X015296Y004012D01*
X015072Y003992D02*
X015004Y003911D01*
X015017Y003761D01*
X015098Y003693D01*
X015397Y003719D01*
X016782Y003836D02*
X017231Y003875D01*
X017068Y004012D01*
X017297Y004033D02*
X017316Y004257D01*
X017398Y004326D01*
X017697Y004299D01*
X017765Y004218D01*
X017745Y003994D01*
X017297Y004033D01*
X017191Y004334D02*
X016742Y004294D01*
X016755Y004145D02*
X016729Y004444D01*
X016790Y004610D02*
X017089Y004636D01*
X017157Y004718D01*
X017137Y004942D01*
X016689Y004903D01*
X016708Y004678D01*
X016790Y004610D01*
X017028Y004470D02*
X017191Y004334D01*
X017486Y004479D02*
X017350Y004641D01*
X017799Y004602D01*
X017786Y004452D02*
X017812Y004752D01*
X017751Y004918D02*
X017452Y004944D01*
X017384Y005025D01*
X017397Y005175D01*
X017478Y005243D01*
X017751Y004918D01*
X017832Y004986D01*
X017845Y005135D01*
X017777Y005217D01*
X017478Y005243D01*
X018460Y004903D02*
X018480Y004678D01*
X018561Y004610D01*
X018860Y004636D01*
X018929Y004718D01*
X018909Y004942D01*
X018460Y004903D01*
X019122Y004641D02*
X019570Y004602D01*
X019557Y004452D02*
X019583Y004752D01*
X019597Y004911D02*
X019324Y005236D01*
X019250Y005243D01*
X019168Y005175D01*
X019155Y005025D01*
X019223Y004944D01*
X019597Y004911D02*
X019623Y005210D01*
X019122Y004641D02*
X019258Y004479D01*
X019169Y004326D02*
X019088Y004257D01*
X019068Y004033D01*
X019517Y003994D01*
X019537Y004218D01*
X019468Y004299D01*
X019169Y004326D01*
X018962Y004334D02*
X018513Y004294D01*
X018527Y004145D02*
X018500Y004444D01*
X018800Y004470D02*
X018962Y004334D01*
X018914Y004018D02*
X018996Y003950D01*
X019009Y003800D01*
X018941Y003719D01*
X018866Y003712D01*
X018785Y003781D01*
X018778Y003855D01*
X018785Y003781D02*
X018716Y003699D01*
X018641Y003693D01*
X018560Y003761D01*
X018547Y003911D01*
X018615Y003992D01*
X016795Y003686D02*
X016769Y003985D01*
X016014Y004452D02*
X015565Y004492D01*
X015585Y004716D01*
X015666Y004784D01*
X015965Y004758D01*
X016033Y004677D01*
X016014Y004452D01*
X015979Y004918D02*
X015904Y004924D01*
X015836Y005005D01*
X015849Y005155D01*
X015931Y005223D01*
X016005Y005217D01*
X016074Y005135D01*
X016061Y004986D01*
X015979Y004918D01*
X015836Y005005D02*
X015755Y004937D01*
X015680Y004944D01*
X015612Y005025D01*
X015625Y005175D01*
X015706Y005243D01*
X015781Y005236D01*
X015849Y005155D01*
D13*
X008163Y006045D02*
X005583Y006045D01*
X005583Y008405D01*
X005574Y008943D02*
X002660Y008943D01*
X002660Y006029D01*
X005574Y006029D01*
X005574Y008943D01*
X008163Y008405D02*
X008163Y006045D01*
X005288Y007486D02*
X005286Y007551D01*
X005281Y007616D01*
X005272Y007680D01*
X005259Y007743D01*
X005243Y007806D01*
X005223Y007868D01*
X005201Y007928D01*
X005174Y007987D01*
X005145Y008045D01*
X005112Y008101D01*
X005077Y008155D01*
X005038Y008207D01*
X004997Y008257D01*
X004953Y008304D01*
X004906Y008349D01*
X004857Y008391D01*
X004806Y008431D01*
X005288Y007486D02*
X005286Y007421D01*
X005281Y007356D01*
X005272Y007292D01*
X005259Y007229D01*
X005243Y007166D01*
X005223Y007104D01*
X005201Y007044D01*
X005174Y006985D01*
X005145Y006927D01*
X005112Y006871D01*
X005077Y006817D01*
X005038Y006765D01*
X004997Y006715D01*
X004953Y006668D01*
X004906Y006623D01*
X004857Y006581D01*
X004806Y006541D01*
X002946Y007486D02*
X002948Y007551D01*
X002953Y007616D01*
X002962Y007680D01*
X002975Y007743D01*
X002991Y007806D01*
X003011Y007868D01*
X003033Y007928D01*
X003060Y007987D01*
X003089Y008045D01*
X003122Y008101D01*
X003157Y008155D01*
X003196Y008207D01*
X003237Y008257D01*
X003281Y008304D01*
X003328Y008349D01*
X003377Y008391D01*
X003428Y008431D01*
X002946Y007486D02*
X002948Y007421D01*
X002953Y007356D01*
X002962Y007292D01*
X002975Y007229D01*
X002991Y007166D01*
X003011Y007104D01*
X003033Y007044D01*
X003060Y006985D01*
X003089Y006927D01*
X003122Y006871D01*
X003157Y006817D01*
X003196Y006765D01*
X003237Y006715D01*
X003281Y006668D01*
X003328Y006623D01*
X003377Y006581D01*
X003428Y006541D01*
D14*
X004893Y006529D02*
X005353Y006529D01*
X005353Y006376D02*
X005353Y006683D01*
X005046Y006376D02*
X004893Y006529D01*
X004969Y006222D02*
X005276Y006222D01*
X005353Y006146D01*
X005353Y005992D01*
X005276Y005915D01*
X004969Y005915D01*
X004893Y005992D01*
X004893Y006146D01*
X004969Y006222D01*
X005199Y006069D02*
X005353Y006222D01*
X008479Y007877D02*
X008526Y007830D01*
X008619Y007830D01*
X008666Y007877D01*
X008774Y007970D02*
X008960Y007970D01*
X008914Y007830D02*
X008914Y008110D01*
X008774Y007970D01*
X008666Y008063D02*
X008619Y008110D01*
X008526Y008110D01*
X008479Y008063D01*
X008479Y007877D01*
X010349Y007877D02*
X010396Y007830D01*
X010489Y007830D01*
X010536Y007877D01*
X010644Y007877D02*
X010690Y007830D01*
X010784Y007830D01*
X010830Y007877D01*
X010830Y007970D01*
X010784Y008017D01*
X010737Y008017D01*
X010644Y007970D01*
X010644Y008110D01*
X010830Y008110D01*
X010536Y008063D02*
X010489Y008110D01*
X010396Y008110D01*
X010349Y008063D01*
X010349Y007877D01*
X012219Y007877D02*
X012266Y007830D01*
X012359Y007830D01*
X012406Y007877D01*
X012514Y007877D02*
X012560Y007830D01*
X012654Y007830D01*
X012700Y007877D01*
X012700Y007923D01*
X012654Y007970D01*
X012514Y007970D01*
X012514Y007877D01*
X012514Y007970D02*
X012607Y008063D01*
X012700Y008110D01*
X012406Y008063D02*
X012359Y008110D01*
X012266Y008110D01*
X012219Y008063D01*
X012219Y007877D01*
X014089Y007877D02*
X014136Y007830D01*
X014229Y007830D01*
X014276Y007877D01*
X014384Y007877D02*
X014384Y007830D01*
X014384Y007877D02*
X014571Y008063D01*
X014571Y008110D01*
X014384Y008110D01*
X014276Y008063D02*
X014229Y008110D01*
X014136Y008110D01*
X014089Y008063D01*
X014089Y007877D01*
X015959Y007877D02*
X016006Y007830D01*
X016099Y007830D01*
X016146Y007877D01*
X016254Y007877D02*
X016254Y007923D01*
X016301Y007970D01*
X016394Y007970D01*
X016441Y007923D01*
X016441Y007877D01*
X016394Y007830D01*
X016301Y007830D01*
X016254Y007877D01*
X016301Y007970D02*
X016254Y008017D01*
X016254Y008063D01*
X016301Y008110D01*
X016394Y008110D01*
X016441Y008063D01*
X016441Y008017D01*
X016394Y007970D01*
X016146Y008063D02*
X016099Y008110D01*
X016006Y008110D01*
X015959Y008063D01*
X015959Y007877D01*
X017829Y007877D02*
X017876Y007830D01*
X017969Y007830D01*
X018016Y007877D01*
X018124Y007830D02*
X018311Y007830D01*
X018217Y007830D02*
X018217Y008110D01*
X018124Y008017D01*
X018016Y008063D02*
X017969Y008110D01*
X017876Y008110D01*
X017829Y008063D01*
X017829Y007877D01*
X018419Y007877D02*
X018465Y007830D01*
X018559Y007830D01*
X018605Y007877D01*
X018605Y007970D01*
X018559Y008017D01*
X018512Y008017D01*
X018419Y007970D01*
X018419Y008110D01*
X018605Y008110D01*
X018663Y002795D02*
X018617Y002749D01*
X018617Y002562D01*
X018663Y002515D01*
X018757Y002515D01*
X018803Y002562D01*
X018911Y002515D02*
X019098Y002515D01*
X019005Y002515D02*
X019005Y002795D01*
X018911Y002702D01*
X018803Y002749D02*
X018757Y002795D01*
X018663Y002795D01*
X019206Y002655D02*
X019346Y002655D01*
X019393Y002608D01*
X019393Y002562D01*
X019346Y002515D01*
X019253Y002515D01*
X019206Y002562D01*
X019206Y002655D01*
X019299Y002749D01*
X019393Y002795D01*
X017228Y002749D02*
X017228Y002562D01*
X017181Y002515D01*
X017088Y002515D01*
X017041Y002562D01*
X017088Y002655D02*
X017228Y002655D01*
X017228Y002749D02*
X017181Y002795D01*
X017088Y002795D01*
X017041Y002749D01*
X017041Y002702D01*
X017088Y002655D01*
X016933Y002562D02*
X016887Y002515D01*
X016793Y002515D01*
X016747Y002562D01*
X016747Y002749D01*
X016793Y002795D01*
X016887Y002795D01*
X016933Y002749D01*
X015653Y002749D02*
X015653Y002562D01*
X015606Y002515D01*
X015512Y002515D01*
X015466Y002562D01*
X015653Y002749D01*
X015606Y002795D01*
X015512Y002795D01*
X015466Y002749D01*
X015466Y002562D01*
X015358Y002515D02*
X015171Y002515D01*
X015265Y002515D02*
X015265Y002795D01*
X015171Y002702D01*
X015063Y002749D02*
X015017Y002795D01*
X014923Y002795D01*
X014876Y002749D01*
X014876Y002562D01*
X014923Y002515D01*
X015017Y002515D01*
X015063Y002562D01*
X013783Y002515D02*
X013596Y002515D01*
X013689Y002515D02*
X013689Y002795D01*
X013596Y002702D01*
X013394Y002795D02*
X013394Y002515D01*
X013301Y002515D02*
X013488Y002515D01*
X013301Y002702D02*
X013394Y002795D01*
X013193Y002749D02*
X013147Y002795D01*
X013053Y002795D01*
X013006Y002749D01*
X013006Y002562D01*
X013053Y002515D01*
X013147Y002515D01*
X013193Y002562D01*
X011912Y002515D02*
X011726Y002515D01*
X011912Y002702D01*
X011912Y002749D01*
X011866Y002795D01*
X011772Y002795D01*
X011726Y002749D01*
X011524Y002795D02*
X011524Y002515D01*
X011431Y002515D02*
X011618Y002515D01*
X011431Y002702D02*
X011524Y002795D01*
X011323Y002749D02*
X011276Y002795D01*
X011183Y002795D01*
X011136Y002749D01*
X011136Y002562D01*
X011183Y002515D01*
X011276Y002515D01*
X011323Y002562D01*
X010042Y002562D02*
X009996Y002515D01*
X009902Y002515D01*
X009856Y002562D01*
X009748Y002515D02*
X009561Y002515D01*
X009654Y002515D02*
X009654Y002795D01*
X009561Y002702D01*
X009453Y002749D02*
X009406Y002795D01*
X009313Y002795D01*
X009266Y002749D01*
X009266Y002562D01*
X009313Y002515D01*
X009406Y002515D01*
X009453Y002562D01*
X009856Y002749D02*
X009902Y002795D01*
X009996Y002795D01*
X010042Y002749D01*
X010042Y002702D01*
X009996Y002655D01*
X010042Y002608D01*
X010042Y002562D01*
X009996Y002655D02*
X009949Y002655D01*
X007779Y003246D02*
X007592Y003246D01*
X007732Y003386D01*
X007732Y003106D01*
X007484Y003106D02*
X007297Y003106D01*
X007391Y003106D02*
X007391Y003386D01*
X007297Y003292D01*
X007189Y003339D02*
X007143Y003386D01*
X007049Y003386D01*
X007002Y003339D01*
X007002Y003152D01*
X007049Y003106D01*
X007143Y003106D01*
X007189Y003152D01*
X006567Y003497D02*
X006287Y003497D01*
X006287Y003638D01*
X006334Y003684D01*
X006427Y003684D01*
X006474Y003638D01*
X006474Y003497D01*
X006474Y003591D02*
X006567Y003684D01*
X006567Y003792D02*
X006567Y003979D01*
X006567Y003885D02*
X006287Y003885D01*
X006380Y003792D01*
X004231Y002655D02*
X004231Y002608D01*
X004184Y002561D01*
X004231Y002514D01*
X004231Y002468D01*
X004184Y002421D01*
X004091Y002421D01*
X004044Y002468D01*
X003936Y002468D02*
X003890Y002421D01*
X003796Y002421D01*
X003750Y002468D01*
X003750Y002655D01*
X003796Y002701D01*
X003890Y002701D01*
X003936Y002655D01*
X004044Y002655D02*
X004091Y002701D01*
X004184Y002701D01*
X004231Y002655D01*
X004184Y002561D02*
X004138Y002561D01*
X002985Y002524D02*
X002831Y002371D01*
X002817Y002421D02*
X002771Y002468D01*
X002771Y002514D01*
X002817Y002561D01*
X002911Y002561D01*
X002957Y002514D01*
X002957Y002468D01*
X002911Y002421D01*
X002817Y002421D01*
X002831Y002447D02*
X002831Y002217D01*
X002985Y002217D02*
X002524Y002217D01*
X002524Y002447D01*
X002601Y002524D01*
X002755Y002524D01*
X002831Y002447D01*
X002817Y002561D02*
X002771Y002608D01*
X002771Y002655D01*
X002817Y002701D01*
X002911Y002701D01*
X002957Y002655D01*
X002957Y002608D01*
X002911Y002561D01*
X002908Y002677D02*
X002985Y002754D01*
X002985Y002908D01*
X002908Y002984D01*
X002601Y002984D01*
X002524Y002908D01*
X002524Y002754D01*
X002601Y002677D01*
X002678Y002677D01*
X002755Y002754D01*
X002755Y002984D01*
X002616Y002701D02*
X002476Y002701D01*
X002476Y002421D01*
X002476Y002514D02*
X002616Y002514D01*
X002663Y002561D01*
X002663Y002655D01*
X002616Y002701D01*
X002569Y002514D02*
X002663Y002421D01*
X002630Y001644D02*
X002490Y001644D01*
X002490Y001364D01*
X002490Y001457D02*
X002630Y001457D01*
X002677Y001504D01*
X002677Y001597D01*
X002630Y001644D01*
X002583Y001457D02*
X002677Y001364D01*
X002784Y001411D02*
X002784Y001504D01*
X002925Y001504D01*
X002971Y001457D01*
X002971Y001411D01*
X002925Y001364D01*
X002831Y001364D01*
X002784Y001411D01*
X002784Y001504D02*
X002878Y001597D01*
X002971Y001644D01*
X003720Y001644D02*
X003720Y001364D01*
X003720Y001457D02*
X003860Y001457D01*
X003907Y001504D01*
X003907Y001597D01*
X003860Y001644D01*
X003720Y001644D01*
X003814Y001457D02*
X003907Y001364D01*
X004015Y001411D02*
X004061Y001364D01*
X004155Y001364D01*
X004202Y001411D01*
X004202Y001504D01*
X004155Y001551D01*
X004108Y001551D01*
X004015Y001504D01*
X004015Y001644D01*
X004202Y001644D01*
X004950Y001644D02*
X004950Y001364D01*
X004950Y001457D02*
X005091Y001457D01*
X005137Y001504D01*
X005137Y001597D01*
X005091Y001644D01*
X004950Y001644D01*
X005044Y001457D02*
X005137Y001364D01*
X005245Y001504D02*
X005432Y001504D01*
X005385Y001364D02*
X005385Y001644D01*
X005245Y001504D01*
X005634Y001442D02*
X005681Y001395D01*
X005774Y001395D01*
X005821Y001442D01*
X005929Y001395D02*
X006115Y001395D01*
X006181Y001364D02*
X006181Y001644D01*
X006321Y001644D01*
X006368Y001597D01*
X006368Y001504D01*
X006321Y001457D01*
X006181Y001457D01*
X006274Y001457D02*
X006368Y001364D01*
X006475Y001411D02*
X006522Y001364D01*
X006616Y001364D01*
X006662Y001411D01*
X006662Y001457D01*
X006616Y001504D01*
X006569Y001504D01*
X006616Y001504D02*
X006662Y001551D01*
X006662Y001597D01*
X006616Y001644D01*
X006522Y001644D01*
X006475Y001597D01*
X006022Y001675D02*
X006022Y001395D01*
X005929Y001582D02*
X006022Y001675D01*
X005821Y001629D02*
X005774Y001675D01*
X005681Y001675D01*
X005634Y001629D01*
X005634Y001442D01*
X007411Y001457D02*
X007551Y001457D01*
X007598Y001504D01*
X007598Y001597D01*
X007551Y001644D01*
X007411Y001644D01*
X007411Y001364D01*
X007504Y001457D02*
X007598Y001364D01*
X007706Y001364D02*
X007893Y001551D01*
X007893Y001597D01*
X007846Y001644D01*
X007752Y001644D01*
X007706Y001597D01*
X007706Y001364D02*
X007893Y001364D01*
X006172Y007963D02*
X005711Y007963D01*
X006172Y007963D02*
X006172Y008270D01*
X006172Y008424D02*
X006172Y008730D01*
X006172Y008577D02*
X005711Y008577D01*
X005865Y008424D01*
D15*
X006873Y005855D03*
D16*
X002493Y001285D02*
X002493Y000695D01*
X003674Y000695D01*
X003674Y001285D01*
X002493Y001285D01*
X002479Y001752D02*
X003660Y001752D01*
X003660Y002342D01*
X002479Y002342D01*
X002479Y001752D01*
X003753Y001752D02*
X003753Y002342D01*
X004934Y002342D01*
X004934Y001752D01*
X003753Y001752D01*
X003723Y001285D02*
X003723Y000695D01*
X004904Y000695D01*
X004904Y001285D01*
X003723Y001285D01*
X004954Y001285D02*
X004954Y000695D01*
X006135Y000695D01*
X006135Y001285D01*
X004954Y001285D01*
X004999Y001754D02*
X004999Y002344D01*
X006180Y002344D01*
X006180Y001754D01*
X004999Y001754D01*
X006184Y001285D02*
X006184Y000695D01*
X007365Y000695D01*
X007365Y001285D01*
X006184Y001285D01*
X007414Y001285D02*
X007414Y000695D01*
X008595Y000695D01*
X008595Y001285D01*
X007414Y001285D01*
X007463Y003466D02*
X006676Y003466D01*
X006676Y004844D01*
X007463Y004844D01*
X007463Y003466D01*
D17*
G36*
X004779Y006520D02*
X005083Y006824D01*
X005243Y006664D01*
X004939Y006360D01*
X004779Y006520D01*
G37*
G36*
X003151Y006824D02*
X003455Y006520D01*
X003295Y006360D01*
X002991Y006664D01*
X003151Y006824D01*
G37*
G36*
X003455Y008452D02*
X003151Y008148D01*
X002991Y008308D01*
X003295Y008612D01*
X003455Y008452D01*
G37*
G36*
X005083Y008148D02*
X004779Y008452D01*
X004939Y008612D01*
X005243Y008308D01*
X005083Y008148D01*
G37*
D18*
G36*
X009278Y005117D02*
X009296Y005315D01*
X010092Y005245D01*
X010074Y005047D01*
X009278Y005117D01*
G37*
G36*
X011050Y005117D02*
X011068Y005315D01*
X011864Y005245D01*
X011846Y005047D01*
X011050Y005117D01*
G37*
G36*
X012822Y005117D02*
X012840Y005315D01*
X013636Y005245D01*
X013618Y005047D01*
X012822Y005117D01*
G37*
G36*
X014692Y005117D02*
X014710Y005315D01*
X015506Y005245D01*
X015488Y005047D01*
X014692Y005117D01*
G37*
G36*
X016464Y005117D02*
X016482Y005315D01*
X017278Y005245D01*
X017260Y005047D01*
X016464Y005117D01*
G37*
G36*
X018235Y005117D02*
X018253Y005315D01*
X019049Y005245D01*
X019031Y005047D01*
X018235Y005117D01*
G37*
G36*
X018145Y004020D02*
X018163Y003822D01*
X017367Y003752D01*
X017349Y003950D01*
X018145Y004020D01*
G37*
G36*
X019917Y004020D02*
X019935Y003822D01*
X019139Y003752D01*
X019121Y003950D01*
X019917Y004020D01*
G37*
G36*
X016374Y004020D02*
X016392Y003822D01*
X015596Y003752D01*
X015578Y003950D01*
X016374Y004020D01*
G37*
G36*
X014602Y004020D02*
X014620Y003822D01*
X013824Y003752D01*
X013806Y003950D01*
X014602Y004020D01*
G37*
G36*
X012732Y004020D02*
X012750Y003822D01*
X011954Y003752D01*
X011936Y003950D01*
X012732Y004020D01*
G37*
G36*
X010960Y004020D02*
X010978Y003822D01*
X010182Y003752D01*
X010164Y003950D01*
X010960Y004020D01*
G37*
G36*
X009189Y004020D02*
X009207Y003822D01*
X008411Y003752D01*
X008393Y003950D01*
X009189Y004020D01*
G37*
D19*
G36*
X009429Y003397D02*
X009451Y003645D01*
X009649Y003627D01*
X009627Y003379D01*
X009429Y003397D01*
G37*
G36*
X008920Y003645D02*
X008942Y003397D01*
X008744Y003379D01*
X008722Y003627D01*
X008920Y003645D01*
G37*
G36*
X010692Y003645D02*
X010714Y003397D01*
X010516Y003379D01*
X010494Y003627D01*
X010692Y003645D01*
G37*
G36*
X011201Y003397D02*
X011223Y003645D01*
X011421Y003627D01*
X011399Y003379D01*
X011201Y003397D01*
G37*
G36*
X012464Y003645D02*
X012486Y003397D01*
X012288Y003379D01*
X012266Y003627D01*
X012464Y003645D01*
G37*
G36*
X012973Y003397D02*
X012995Y003645D01*
X013193Y003627D01*
X013171Y003379D01*
X012973Y003397D01*
G37*
G36*
X014334Y003645D02*
X014356Y003397D01*
X014158Y003379D01*
X014136Y003627D01*
X014334Y003645D01*
G37*
G36*
X014843Y003397D02*
X014865Y003645D01*
X015063Y003627D01*
X015041Y003379D01*
X014843Y003397D01*
G37*
G36*
X016105Y003645D02*
X016127Y003397D01*
X015929Y003379D01*
X015907Y003627D01*
X016105Y003645D01*
G37*
G36*
X016615Y003397D02*
X016637Y003645D01*
X016835Y003627D01*
X016813Y003379D01*
X016615Y003397D01*
G37*
G36*
X017877Y003645D02*
X017899Y003397D01*
X017701Y003379D01*
X017679Y003627D01*
X017877Y003645D01*
G37*
G36*
X018386Y003397D02*
X018408Y003645D01*
X018606Y003627D01*
X018584Y003379D01*
X018386Y003397D01*
G37*
G36*
X019649Y003645D02*
X019671Y003397D01*
X019473Y003379D01*
X019451Y003627D01*
X019649Y003645D01*
G37*
G36*
X019470Y005687D02*
X019492Y005439D01*
X019294Y005421D01*
X019272Y005669D01*
X019470Y005687D01*
G37*
G36*
X018565Y005439D02*
X018587Y005687D01*
X018785Y005669D01*
X018763Y005421D01*
X018565Y005439D01*
G37*
G36*
X017698Y005687D02*
X017720Y005439D01*
X017522Y005421D01*
X017500Y005669D01*
X017698Y005687D01*
G37*
G36*
X016793Y005439D02*
X016815Y005687D01*
X017013Y005669D01*
X016991Y005421D01*
X016793Y005439D01*
G37*
G36*
X015927Y005687D02*
X015949Y005439D01*
X015751Y005421D01*
X015729Y005669D01*
X015927Y005687D01*
G37*
G36*
X015022Y005439D02*
X015044Y005687D01*
X015242Y005669D01*
X015220Y005421D01*
X015022Y005439D01*
G37*
G36*
X014155Y005687D02*
X014177Y005439D01*
X013979Y005421D01*
X013957Y005669D01*
X014155Y005687D01*
G37*
G36*
X013151Y005439D02*
X013173Y005687D01*
X013371Y005669D01*
X013349Y005421D01*
X013151Y005439D01*
G37*
G36*
X012285Y005687D02*
X012307Y005439D01*
X012109Y005421D01*
X012087Y005669D01*
X012285Y005687D01*
G37*
G36*
X011380Y005439D02*
X011402Y005687D01*
X011600Y005669D01*
X011578Y005421D01*
X011380Y005439D01*
G37*
G36*
X010513Y005687D02*
X010535Y005439D01*
X010337Y005421D01*
X010315Y005669D01*
X010513Y005687D01*
G37*
G36*
X009608Y005439D02*
X009630Y005687D01*
X009828Y005669D01*
X009806Y005421D01*
X009608Y005439D01*
G37*
G36*
X008742Y005687D02*
X008764Y005439D01*
X008566Y005421D01*
X008544Y005669D01*
X008742Y005687D01*
G37*
D20*
X008891Y006994D02*
X009383Y006994D01*
X009383Y007584D02*
X008891Y007584D01*
X010761Y007584D02*
X011253Y007584D01*
X011253Y006994D02*
X010761Y006994D01*
X012631Y006994D02*
X013123Y006994D01*
X013123Y007584D02*
X012631Y007584D01*
X014501Y007584D02*
X014993Y007584D01*
X014993Y006994D02*
X014501Y006994D01*
X016371Y006994D02*
X016863Y006994D01*
X016863Y007584D02*
X016371Y007584D01*
X018241Y007584D02*
X018733Y007584D01*
X018733Y006994D02*
X018241Y006994D01*
X017650Y002269D02*
X017158Y002269D01*
X017158Y001679D02*
X017650Y001679D01*
X019028Y001679D02*
X019521Y001679D01*
X019521Y002269D02*
X019028Y002269D01*
X015780Y002269D02*
X015288Y002269D01*
X015288Y001679D02*
X015780Y001679D01*
X013910Y001679D02*
X013418Y001679D01*
X013418Y002269D02*
X013910Y002269D01*
X012040Y002269D02*
X011548Y002269D01*
X011548Y001679D02*
X012040Y001679D01*
X010170Y001679D02*
X009678Y001679D01*
X009678Y002269D02*
X010170Y002269D01*
X007906Y002269D02*
X007414Y002269D01*
X007414Y002860D02*
X007906Y002860D01*
D21*
X002326Y002525D02*
X002326Y001679D01*
X002089Y001679D01*
X001420Y001679D02*
X001184Y001679D01*
X001184Y002525D01*
M02*
