G75*
%MOIN*%
%OFA0B0*%
%FSLAX24Y24*%
%IPPOS*%
%LPD*%
%AMOC8*
5,1,8,0,0,1.08239X$1,22.5*
%
%ADD10R,0.0800X0.0260*%
%ADD11R,0.2126X0.2441*%
%ADD12R,0.0394X0.0630*%
%ADD13R,0.0571X0.0374*%
%ADD14R,0.1280X0.0984*%
%ADD15R,0.0374X0.0394*%
%ADD16R,0.0453X0.0709*%
%ADD17R,0.0512X0.0512*%
%ADD18R,0.0472X0.0492*%
D10*
X003529Y002720D03*
X003529Y003220D03*
X003529Y003720D03*
X003529Y004220D03*
X005949Y004220D03*
X005949Y003720D03*
X005949Y003220D03*
X005949Y002720D03*
D11*
X006873Y007880D03*
D12*
X007771Y005006D03*
X005975Y005006D03*
D13*
X007070Y004549D03*
X007070Y003762D03*
D14*
X004117Y006305D03*
X004117Y008667D03*
D15*
X002769Y000990D03*
X003399Y000990D03*
X003999Y000990D03*
X004629Y000990D03*
X005229Y000990D03*
X005859Y000990D03*
X006460Y000990D03*
X007089Y000990D03*
X007690Y000990D03*
X008320Y000990D03*
X005904Y002049D03*
X005274Y002049D03*
X004658Y002047D03*
X004028Y002047D03*
X003385Y002047D03*
X002755Y002047D03*
D16*
X007070Y002565D03*
X008251Y002565D03*
X009334Y001974D03*
X010515Y001974D03*
X011204Y001974D03*
X012385Y001974D03*
X013074Y001974D03*
X014255Y001974D03*
X014944Y001974D03*
X016125Y001974D03*
X016814Y001974D03*
X017995Y001974D03*
X018684Y001974D03*
X019865Y001974D03*
X019078Y007289D03*
X017897Y007289D03*
X017208Y007289D03*
X016026Y007289D03*
X015337Y007289D03*
X014156Y007289D03*
X013467Y007289D03*
X012286Y007289D03*
X011597Y007289D03*
X010416Y007289D03*
X009727Y007289D03*
X008546Y007289D03*
D17*
X001755Y001856D03*
D18*
X002149Y002850D03*
X001361Y002850D03*
M02*
