G75*
%MOIN*%
%OFA0B0*%
%FSLAX24Y24*%
%IPPOS*%
%LPD*%
%AMOC8*
5,1,8,0,0,1.08239X$1,22.5*
%
%ADD10R,0.0880X0.0340*%
%ADD11R,0.2206X0.2521*%
%ADD12R,0.0474X0.0710*%
%ADD13R,0.0651X0.0454*%
%ADD14R,0.1360X0.1064*%
%ADD15R,0.0454X0.0474*%
%ADD16OC8,0.0595*%
%ADD17OC8,0.0600*%
%ADD18C,0.0600*%
%ADD19C,0.0600*%
%ADD20R,0.0533X0.0789*%
%ADD21R,0.0592X0.0592*%
%ADD22R,0.0552X0.0572*%
%ADD23OC8,0.0390*%
D10*
X003529Y002720D03*
X003529Y003220D03*
X003529Y003720D03*
X003529Y004220D03*
X005949Y004220D03*
X005949Y003720D03*
X005949Y003220D03*
X005949Y002720D03*
D11*
X006873Y007880D03*
D12*
X007771Y005006D03*
X005975Y005006D03*
D13*
X007070Y004549D03*
X007070Y003762D03*
D14*
X004117Y006305D03*
X004117Y008667D03*
D15*
X002769Y000990D03*
X003399Y000990D03*
X003999Y000990D03*
X004629Y000990D03*
X005229Y000990D03*
X005859Y000990D03*
X006460Y000990D03*
X007089Y000990D03*
X007690Y000990D03*
X008320Y000990D03*
X005904Y002049D03*
X005274Y002049D03*
X004658Y002047D03*
X004028Y002047D03*
X003385Y002047D03*
X002755Y002047D03*
D16*
X002026Y004065D03*
X002026Y004852D03*
D17*
X001526Y006322D03*
D18*
X001526Y007122D03*
D19*
X008590Y006287D02*
X008635Y005769D01*
X009737Y005769D02*
X009782Y006287D01*
X010361Y006287D02*
X010407Y005769D01*
X011509Y005769D02*
X011554Y006287D01*
X012133Y006287D02*
X012178Y005769D01*
X013280Y005769D02*
X013326Y006287D01*
X014003Y006287D02*
X014048Y005769D01*
X015150Y005769D02*
X015196Y006287D01*
X015775Y006287D02*
X015820Y005769D01*
X016922Y005769D02*
X016967Y006287D01*
X017546Y006287D02*
X017592Y005769D01*
X018694Y005769D02*
X018739Y006287D01*
X019318Y006287D02*
X019363Y005769D01*
X019579Y003298D02*
X019625Y002780D01*
X018432Y002780D02*
X018477Y003298D01*
X017808Y003298D02*
X017853Y002780D01*
X016660Y002780D02*
X016706Y003298D01*
X016036Y003298D02*
X016081Y002780D01*
X014889Y002780D02*
X014934Y003298D01*
X014264Y003298D02*
X014310Y002780D01*
X013019Y002780D02*
X013064Y003298D01*
X012394Y003298D02*
X012440Y002780D01*
X011247Y002780D02*
X011292Y003298D01*
X010623Y003298D02*
X010668Y002780D01*
X009475Y002780D02*
X009521Y003298D01*
X008851Y003298D02*
X008896Y002780D01*
D20*
X008251Y002565D03*
X007070Y002565D03*
X009334Y001974D03*
X010515Y001974D03*
X011204Y001974D03*
X012385Y001974D03*
X013074Y001974D03*
X014255Y001974D03*
X014944Y001974D03*
X016125Y001974D03*
X016814Y001974D03*
X017995Y001974D03*
X018684Y001974D03*
X019865Y001974D03*
X019078Y007289D03*
X017897Y007289D03*
X017208Y007289D03*
X016026Y007289D03*
X015337Y007289D03*
X014156Y007289D03*
X013467Y007289D03*
X012286Y007289D03*
X011597Y007289D03*
X010416Y007289D03*
X009727Y007289D03*
X008546Y007289D03*
D21*
X001755Y001856D03*
D22*
X002149Y002850D03*
X001361Y002850D03*
D23*
X002542Y002565D03*
X004682Y002539D03*
X004682Y002933D03*
X004682Y003327D03*
X005298Y002958D03*
X006650Y002342D03*
X006650Y001949D03*
X007044Y001949D03*
X007438Y001949D03*
X007438Y003327D03*
X007044Y003327D03*
X007635Y003720D03*
X005273Y003720D03*
X004879Y003720D03*
M02*
